<mxfile host="app.diagrams.net" agent="Mozilla/5.0 (Windows NT 10.0; Win64; x64) AppleWebKit/537.36 (KHTML, like Gecko) Chrome/133.0.0.0 Safari/537.36" version="25.0.3">
  <diagram name="Page-1" id="yS-lHeXbkKt984LfPxND">
    <mxGraphModel dx="1195" dy="615" grid="1" gridSize="10" guides="1" tooltips="1" connect="1" arrows="1" fold="1" page="1" pageScale="1" pageWidth="850" pageHeight="1100" math="0" shadow="0">
      <root>
        <mxCell id="0" />
        <mxCell id="1" parent="0" />
        <mxCell id="pBr_tVuuhjHOvRaEizp6-1" value="(uC)&lt;br&gt;STM32H743" style="rounded=0;whiteSpace=wrap;html=1;" vertex="1" parent="1">
          <mxGeometry x="320" y="280" width="80" height="80" as="geometry" />
        </mxCell>
        <mxCell id="pBr_tVuuhjHOvRaEizp6-2" value="(DAC)&lt;div&gt;LTC2642&lt;/div&gt;" style="rounded=0;whiteSpace=wrap;html=1;" vertex="1" parent="1">
          <mxGeometry x="480" y="280" width="80" height="80" as="geometry" />
        </mxCell>
        <mxCell id="pBr_tVuuhjHOvRaEizp6-3" value="(OpAmp)&lt;div&gt;LMH6658&lt;/div&gt;" style="rounded=0;whiteSpace=wrap;html=1;" vertex="1" parent="1">
          <mxGeometry x="640" y="280" width="80" height="80" as="geometry" />
        </mxCell>
        <mxCell id="pBr_tVuuhjHOvRaEizp6-14" style="edgeStyle=orthogonalEdgeStyle;rounded=0;orthogonalLoop=1;jettySize=auto;html=1;exitX=0.5;exitY=1;exitDx=0;exitDy=0;entryX=0.5;entryY=0;entryDx=0;entryDy=0;fillColor=#f8cecc;strokeColor=#b85450;" edge="1" parent="1" source="pBr_tVuuhjHOvRaEizp6-4" target="pBr_tVuuhjHOvRaEizp6-5">
          <mxGeometry relative="1" as="geometry" />
        </mxCell>
        <mxCell id="pBr_tVuuhjHOvRaEizp6-4" value="Barrel&lt;div&gt;Connector&lt;/div&gt;" style="rounded=1;whiteSpace=wrap;html=1;" vertex="1" parent="1">
          <mxGeometry y="360" width="80" height="40" as="geometry" />
        </mxCell>
        <mxCell id="pBr_tVuuhjHOvRaEizp6-11" style="edgeStyle=orthogonalEdgeStyle;rounded=0;orthogonalLoop=1;jettySize=auto;html=1;exitX=1;exitY=0.25;exitDx=0;exitDy=0;entryX=0;entryY=0.5;entryDx=0;entryDy=0;fillColor=#f8cecc;strokeColor=#b85450;" edge="1" parent="1" source="pBr_tVuuhjHOvRaEizp6-5" target="pBr_tVuuhjHOvRaEizp6-6">
          <mxGeometry relative="1" as="geometry" />
        </mxCell>
        <mxCell id="pBr_tVuuhjHOvRaEizp6-12" style="edgeStyle=orthogonalEdgeStyle;rounded=0;orthogonalLoop=1;jettySize=auto;html=1;exitX=1;exitY=0.5;exitDx=0;exitDy=0;entryX=0;entryY=0.5;entryDx=0;entryDy=0;fillColor=#f8cecc;strokeColor=#b85450;" edge="1" parent="1" source="pBr_tVuuhjHOvRaEizp6-5" target="pBr_tVuuhjHOvRaEizp6-7">
          <mxGeometry relative="1" as="geometry" />
        </mxCell>
        <mxCell id="pBr_tVuuhjHOvRaEizp6-13" style="edgeStyle=orthogonalEdgeStyle;rounded=0;orthogonalLoop=1;jettySize=auto;html=1;exitX=1;exitY=0.75;exitDx=0;exitDy=0;entryX=0;entryY=0.5;entryDx=0;entryDy=0;fillColor=#f8cecc;strokeColor=#b85450;" edge="1" parent="1" source="pBr_tVuuhjHOvRaEizp6-5" target="pBr_tVuuhjHOvRaEizp6-8">
          <mxGeometry relative="1" as="geometry" />
        </mxCell>
        <mxCell id="pBr_tVuuhjHOvRaEizp6-5" value="(12V-&amp;gt;5V)&lt;br&gt;TPSM863252" style="rounded=0;whiteSpace=wrap;html=1;" vertex="1" parent="1">
          <mxGeometry y="440" width="80" height="80" as="geometry" />
        </mxCell>
        <mxCell id="pBr_tVuuhjHOvRaEizp6-6" value="(5V-&amp;gt;3v3 A)&lt;br&gt;TPS70933" style="rounded=0;whiteSpace=wrap;html=1;" vertex="1" parent="1">
          <mxGeometry x="120" y="320" width="80" height="80" as="geometry" />
        </mxCell>
        <mxCell id="pBr_tVuuhjHOvRaEizp6-7" value="(5V-&amp;gt;3v3)&lt;br&gt;AP7363-33D" style="rounded=0;whiteSpace=wrap;html=1;" vertex="1" parent="1">
          <mxGeometry x="120" y="440" width="80" height="80" as="geometry" />
        </mxCell>
        <mxCell id="pBr_tVuuhjHOvRaEizp6-8" value="(5V-&amp;gt;3v3 Ref)&lt;br&gt;AP7363-33D" style="rounded=0;whiteSpace=wrap;html=1;" vertex="1" parent="1">
          <mxGeometry x="120" y="560" width="80" height="80" as="geometry" />
        </mxCell>
      </root>
    </mxGraphModel>
  </diagram>
</mxfile>
